<?xml version="1.0" standalone="no"?>
<!DOCTYPE svg PUBLIC "-//W3C//DTD SVG 20010904//EN"
 "http://www.w3.org/TR/2001/REC-SVG-20010904/DTD/svg10.dtd">
<svg version="1.0" xmlns="http://www.w3.org/2000/svg"
 width="1055.000000pt" height="1055.000000pt" viewBox="0 0 1055.000000 1055.000000"
 preserveAspectRatio="xMidYMid meet">
<metadata>
Created by potrace 1.11, written by Peter Selinger 2001-2013
</metadata>
<g transform="translate(0.000000,1055.000000) scale(0.100000,-0.100000)"
fill="#000000" stroke="none">
<path d="M4998 10545 c-2 -1 -46 -5 -98 -9 -255 -18 -435 -42 -700 -97 -204
-42 -531 -130 -640 -174 -19 -7 -87 -33 -150 -56 -206 -76 -543 -233 -715
-334 -33 -19 -67 -38 -75 -42 -70 -33 -383 -242 -530 -353 -279 -212 -594
-507 -800 -750 -30 -36 -57 -67 -60 -70 -54 -49 -420 -553 -420 -577 0 -3 -8
-17 -19 -31 -65 -92 -223 -385 -316 -587 -223 -484 -385 -1066 -440 -1586 -4
-30 -8 -67 -10 -84 -27 -196 -27 -799 0 -1045 15 -132 34 -279 46 -345 131
-758 400 -1432 821 -2063 562 -841 1361 -1507 2293 -1910 496 -215 945 -331
1565 -407 111 -13 296 -20 530 -20 285 0 414 7 610 31 69 9 136 17 150 19 14
1 68 10 120 20 52 9 110 19 129 21 19 3 37 6 41 9 4 2 22 7 41 10 103 17 385
94 552 150 221 75 203 68 242 84 17 7 46 19 65 26 163 59 536 243 735 363 274
165 538 353 720 513 17 15 55 48 85 74 196 169 421 408 669 710 108 132 321
453 440 665 42 74 189 368 228 455 177 397 326 919 388 1355 4 25 8 56 10 70
3 23 12 94 20 175 27 266 28 761 1 1030 -2 17 -6 61 -10 98 -6 55 -35 239 -70
442 -2 11 -13 63 -25 115 -12 52 -24 103 -26 113 -31 141 -149 502 -230 701
-50 124 -188 426 -206 451 -4 6 -24 42 -44 80 -131 249 -354 580 -554 825
-282 346 -562 611 -991 938 -70 53 -341 228 -460 297 -538 309 -1152 532
-1737 630 -18 3 -45 7 -60 10 -16 2 -48 7 -73 10 -25 3 -56 7 -70 10 -28 5
-85 11 -180 20 -36 3 -85 8 -110 11 -49 5 -676 14 -682 9z m647 -149 c17 -3
70 -8 119 -11 49 -4 97 -8 106 -10 9 -2 41 -6 71 -10 30 -3 79 -10 109 -15 30
-5 73 -12 95 -16 22 -3 58 -9 80 -14 22 -5 56 -12 75 -15 48 -8 228 -50 325
-75 143 -38 486 -156 635 -220 970 -413 1771 -1085 2333 -1960 469 -729 741
-1552 804 -2430 14 -202 8 -664 -12 -835 -3 -22 -7 -60 -9 -85 -12 -109 -18
-153 -42 -290 -29 -172 -82 -404 -125 -550 -17 -58 -37 -130 -46 -160 -8 -30
-20 -61 -26 -69 -7 -8 -11 -15 -9 -15 5 -1 -55 -176 -78 -231 -5 -11 -29 -67
-54 -125 -161 -378 -348 -703 -604 -1050 -47 -63 -106 -140 -131 -170 -25 -30
-55 -65 -66 -79 -134 -166 -440 -470 -625 -622 -36 -29 -67 -56 -70 -59 -20
-25 -375 -278 -486 -347 -238 -148 -500 -286 -697 -368 -62 -26 -125 -53 -142
-60 -191 -83 -676 -227 -875 -261 -14 -3 -59 -11 -100 -19 -41 -8 -95 -17
-120 -20 -25 -3 -72 -10 -105 -15 -33 -5 -85 -12 -115 -15 -30 -3 -73 -8 -95
-10 -237 -25 -853 -25 -984 0 -9 1 -45 6 -81 10 -62 6 -347 49 -400 60 -14 2
-50 10 -80 16 -30 6 -91 20 -135 31 -44 11 -88 21 -98 23 -52 11 -261 74 -387
118 -796 275 -1485 724 -2086 1358 -66 70 -253 291 -300 354 -16 22 -31 42
-35 45 -11 10 -155 216 -210 300 -347 531 -605 1164 -725 1773 -2 10 -5 26 -8
35 -3 9 -8 35 -11 57 -3 23 -8 52 -10 65 -9 42 -25 150 -30 200 -4 35 -16 138
-21 180 -26 216 -25 691 2 990 12 140 56 419 89 570 9 41 18 84 20 96 8 35 62
236 79 289 9 28 15 51 15 53 -1 29 154 444 221 587 15 33 42 92 60 130 68 146
215 407 327 577 405 620 949 1153 1583 1550 30 19 74 46 97 61 24 15 45 27 48
27 3 0 24 12 47 26 69 44 385 199 523 257 343 145 773 273 1084 323 18 3 43 8
55 10 19 5 247 35 356 48 25 3 101 9 170 12 69 3 126 8 128 9 5 5 543 -4 577
-9z"/>
<path d="M5049 9756 c-2 -2 -47 -6 -99 -10 -100 -7 -143 -11 -209 -20 -23 -3
-60 -8 -83 -11 -76 -10 -210 -35 -323 -59 -735 -160 -1429 -509 -1999 -1006
-161 -141 -380 -365 -506 -520 -25 -30 -47 -57 -50 -60 -19 -16 -169 -224
-242 -335 -402 -609 -660 -1332 -723 -2030 -2 -16 -7 -68 -11 -115 -15 -168
-7 -697 11 -785 5 -24 17 -134 17 -155 0 -8 9 -62 19 -120 10 -58 21 -120 24
-139 3 -19 7 -37 9 -40 2 -3 7 -24 10 -46 26 -165 142 -538 250 -797 160 -389
433 -835 702 -1148 92 -108 128 -147 209 -230 592 -611 1310 -1030 2125 -1241
136 -35 362 -80 475 -93 22 -3 72 -10 110 -15 147 -21 249 -26 510 -26 237 0
498 10 514 20 4 1 33 6 66 9 33 3 69 8 80 10 11 2 40 7 65 10 25 3 55 8 66 10
12 2 37 7 55 10 214 34 558 132 814 233 130 51 168 68 330 144 33 15 122 61
196 102 382 209 716 461 1024 771 160 160 200 205 329 366 91 113 118 150 222
300 179 260 370 632 483 940 52 139 135 401 146 460 2 9 10 45 19 81 23 95 54
249 60 294 9 66 16 119 21 143 2 12 7 57 10 100 4 42 9 85 10 94 7 36 19 300
18 413 -3 394 -44 725 -139 1100 -32 127 -102 360 -124 410 -4 11 -27 70 -51
130 -258 671 -717 1311 -1279 1786 -421 355 -862 611 -1378 800 -272 99 -614
185 -897 224 -89 13 -102 14 -160 20 -33 3 -80 8 -105 11 -48 6 -616 15 -621
10z m591 -129 c19 -3 69 -8 110 -12 151 -15 189 -21 330 -46 623 -111 1244
-373 1760 -742 220 -158 352 -270 554 -472 416 -415 738 -896 955 -1425 24
-58 47 -114 52 -125 76 -182 181 -579 223 -845 29 -180 36 -244 51 -460 6 -82
6 -403 0 -490 -6 -91 -16 -210 -20 -245 -2 -16 -7 -52 -10 -80 -3 -27 -7 -61
-10 -75 -2 -14 -7 -43 -10 -65 -3 -22 -17 -96 -31 -165 -150 -744 -487 -1423
-1002 -2020 -78 -91 -353 -361 -453 -446 -184 -156 -401 -310 -619 -439 -103
-61 -349 -189 -440 -228 -19 -8 -55 -24 -80 -35 -272 -120 -772 -259 -1065
-296 -16 -2 -50 -6 -75 -9 -186 -25 -293 -32 -555 -32 -207 0 -459 10 -475 20
-3 1 -39 6 -79 9 -41 4 -77 9 -80 11 -4 1 -28 6 -56 9 -224 29 -588 124 -861
227 -763 285 -1464 809 -1948 1454 -107 142 -296 423 -296 439 0 2 -22 41 -49
87 -202 352 -384 852 -466 1279 -22 113 -32 179 -51 325 -17 136 -28 333 -28
515 0 153 10 395 18 437 2 10 7 49 11 86 3 37 8 76 10 85 1 9 8 53 15 97 6 44
21 123 32 175 10 52 22 106 24 120 9 46 45 174 80 290 178 581 476 1120 873
1580 64 75 335 348 421 426 25 22 95 80 155 128 61 48 119 95 130 104 54 43
326 219 445 287 330 189 718 346 1089 440 53 13 107 26 121 29 14 2 70 14 125
25 124 24 167 31 285 45 30 4 69 9 85 11 17 2 71 7 120 10 50 4 91 8 93 10 5
5 552 -3 592 -8z"/>
<path d="M3170 6585 l0 -2255 784 0 783 0 1 -992 c0 -546 1 -1005 1 -1021 l1
-27 1417 2 1417 3 1 203 c0 173 -2 203 -15 206 -8 3 -541 5 -1185 5 -643 0
-1182 0 -1196 0 l-26 1 1 807 1 808 555 2 c305 1 560 2 565 2 6 1 10 71 10
189 0 155 -3 193 -16 213 l-16 24 -550 0 -550 -1 0 808 0 808 21 1 c12 0 557
1 1211 1 l1190 1 -1 201 c-1 110 -2 207 -3 214 -1 9 -291 12 -1416 12 -1341 0
-1415 -1 -1416 -17 0 -10 -1 -471 -1 -1025 0 -734 -4 -1008 -12 -1009 -67 -5
-1128 0 -1134 5 -4 4 -8 922 -8 2039 -1 1118 -2 2035 -3 2040 -1 4 -93 7 -206
7 l-205 0 0 -2255z"/>
</g>
</svg>
